<mxfile host="app.diagrams.net" modified="2023-06-15T08:50:11.686Z" agent="Mozilla/5.0 (X11; Linux x86_64) AppleWebKit/537.36 (KHTML, like Gecko) Chrome/112.0.0.0 Safari/537.36" version="21.4.0" etag="vVUpZS8Goa1Hrkisy-LE" type="github">
  <diagram name="Страница 1" id="--eQHH6dQR5xhtEGbDd1">
    <mxGraphModel>
      <root>
        <mxCell id="0" />
        <mxCell id="1" parent="0" />
      </root>
    </mxGraphModel>
  </diagram>
</mxfile>
